<svg width="39" height="40" viewBox="0 0 39 40" fill="none" xmlns="http://www.w3.org/2000/svg">
<g clip-path="url(#clip0_2573_78)">
<path d="M38.8684 20.3742C38.8684 18.7355 38.7361 17.5396 38.4497 16.2994H19.8318V23.6961H30.7601C30.5399 25.5342 29.3501 28.3025 26.7061 30.1626L26.669 30.4103L32.5556 34.9939L32.9635 35.0349C36.709 31.5579 38.8684 26.4422 38.8684 20.3742Z" fill="#4285F4"/>
<path d="M19.8318 39.8626C25.1858 39.8626 29.6805 38.0908 32.9635 35.0348L26.7061 30.1626C25.0316 31.3363 22.7842 32.1557 19.8318 32.1557C14.588 32.1557 10.1373 28.6789 8.55081 23.8733L8.31826 23.8931L2.19724 28.6545L2.11719 28.8782C5.37805 35.389 12.0761 39.8626 19.8318 39.8626Z" fill="#34A853"/>
<path d="M8.5507 23.8733C8.13208 22.6331 7.88981 21.3043 7.88981 19.9313C7.88981 18.5582 8.13208 17.2295 8.52868 15.9893L8.51759 15.7252L2.31986 10.8873L2.11708 10.9843C0.773119 13.6861 0.00195312 16.7202 0.00195312 19.9313C0.00195312 23.1424 0.773119 26.1763 2.11708 28.8782L8.5507 23.8733Z" fill="#FBBC05"/>
<path d="M19.8318 7.70672C23.5554 7.70672 26.0671 9.32336 27.4993 10.6744L33.0957 5.18214C29.6586 1.97099 25.1858 0 19.8318 0C12.0761 0 5.37805 4.47343 2.11719 10.9843L8.52879 15.9893C10.1373 11.1837 14.588 7.70672 19.8318 7.70672Z" fill="#EB4335"/>
</g>
<defs>
<clipPath id="clip0_2573_78">
<rect width="38.8889" height="40" fill="white"/>
</clipPath>
</defs>
</svg>
